<svg width="800" height="340" xmlns="http://www.w3.org/2000/svg">
  <rect width="800" height="340" fill="#000000" rx="10"/>

  <!-- Total lines -->
  <text x="40" y="55" font-family="monospace" font-size="32" fill="#ffffff">3,006</text>
  <text x="40" y="78" font-family="monospace" font-size="13" fill="#aaaaaa">LINES OF CODE</text>

  <!-- Total files -->
  <text x="760" y="55" font-family="monospace" font-size="24" fill="#ffffff" text-anchor="end">86</text>
  <text x="760" y="75" font-family="monospace" font-size="12" fill="#aaaaaa" text-anchor="end">FILES</text>

  <!-- Divider -->
  <line x1="30" y1="100" x2="770" y2="100" stroke="#30363d" stroke-width="1"/>

  <!-- Section heading -->
  <text x="40" y="132" font-family="monospace" font-size="15" fill="#ff4444">TOP LANGUAGES</text>

  <text x="40" y="170" font-family="monospace" font-size="13" fill="#ffffff">Python</text>
  <rect x="180" y="157" width="450" height="16" fill="#21262d" rx="4"/>
  <rect x="180" y="157" width="450.0" height="16" fill="#3572A5" rx="4"/>
  <text x="650" y="170" font-family="monospace" font-size="12" fill="#cccccc">1,616</text>

  <text x="40" y="198" font-family="monospace" font-size="13" fill="#ffffff">SVG</text>
  <rect x="180" y="185" width="450" height="16" fill="#21262d" rx="4"/>
  <rect x="180" y="185" width="189.9" height="16" fill="#888888" rx="4"/>
  <text x="650" y="198" font-family="monospace" font-size="12" fill="#cccccc">682</text>

  <text x="40" y="226" font-family="monospace" font-size="13" fill="#ffffff">JavaScript</text>
  <rect x="180" y="213" width="450" height="16" fill="#21262d" rx="4"/>
  <rect x="180" y="213" width="105.3" height="16" fill="#F1E05A" rx="4"/>
  <text x="650" y="226" font-family="monospace" font-size="12" fill="#cccccc">378</text>

  <text x="40" y="254" font-family="monospace" font-size="13" fill="#ffffff">HTML</text>
  <rect x="180" y="241" width="450" height="16" fill="#21262d" rx="4"/>
  <rect x="180" y="241" width="24.5" height="16" fill="#E34C26" rx="4"/>
  <text x="650" y="254" font-family="monospace" font-size="12" fill="#cccccc">88</text>

  <text x="40" y="282" font-family="monospace" font-size="13" fill="#ffffff">Shell</text>
  <rect x="180" y="269" width="450" height="16" fill="#21262d" rx="4"/>
  <rect x="180" y="269" width="5.0" height="16" fill="#89E051" rx="4"/>
  <text x="650" y="282" font-family="monospace" font-size="12" fill="#cccccc">18</text>

</svg>